<svg width="160" height="48" viewBox="0 0 160 48" fill="none" xmlns="http://www.w3.org/2000/svg">
<g clip-path="url(#clip0_11_520)">
<path d="M9.99604 1.83032H1.7599C1.39584 1.83032 1.04669 1.97494 0.789259 2.23237C0.531829 2.4898 0.387207 2.83895 0.387207 3.20301L0.387207 33.4022C0.387207 34.1599 1.00217 34.7749 1.7599 34.7749H9.99604C10.3601 34.7749 10.7092 34.6303 10.9667 34.3728C11.2241 34.1154 11.3687 33.7662 11.3687 33.4022V3.20301C11.3687 2.83895 11.2241 2.4898 10.9667 2.23237C10.7092 1.97494 10.3601 1.83032 9.99604 1.83032ZM24.6381 1.83032H16.4019C16.0379 1.83032 15.6887 1.97494 15.4313 2.23237C15.1739 2.4898 15.0292 2.83895 15.0292 3.20301V44.3837C15.0292 45.1414 15.6442 45.7564 16.4019 45.7564H24.6381C25.0021 45.7564 25.3513 45.6118 25.6087 45.3543C25.8661 45.0969 26.0107 44.7478 26.0107 44.3837V3.20301C26.0107 2.83895 25.8661 2.4898 25.6087 2.23237C25.3513 1.97494 25.0021 1.83032 24.6381 1.83032ZM62.6378 46.1224V33.4168H61.8764C61.4752 34.1156 60.9606 34.7428 60.3536 35.2727C59.6874 35.8437 58.8308 36.3196 57.7839 36.7003C56.7682 37.081 55.4998 37.2713 53.977 37.2713C52.0737 37.2882 50.2006 36.7952 48.5521 35.8437C46.9031 34.892 45.5871 33.5285 44.6025 31.7513C43.6196 29.943 43.1273 27.7705 43.1273 25.2319V24.5181C43.1273 21.9796 43.6196 19.8235 44.6025 18.0464C45.6183 16.2381 46.9507 14.8581 48.5997 13.9063C50.2488 12.9546 52.0406 12.4787 53.977 12.4787C56.2612 12.4787 58.0054 12.8905 59.2115 13.716C60.4488 14.5396 61.3694 15.4767 61.9716 16.5236H62.7329V13.1449H67.5392V46.1224H62.6378ZM55.357 32.9885C57.5149 32.9885 59.2738 32.3059 60.6391 30.9423C62.0027 29.5788 62.6854 27.6277 62.6854 25.0892V24.6609C62.6854 22.1535 61.988 20.2189 60.5916 18.8553C59.228 17.4918 57.4819 16.8091 55.357 16.8091C53.2632 16.8091 51.519 17.4918 50.1225 18.8553C48.759 20.2189 48.0763 22.1553 48.0763 24.6609V25.0892C48.0763 27.6277 48.759 29.5788 50.1225 30.9423C51.519 32.3059 53.2632 32.9885 55.357 32.9885ZM80.4169 37.0334C78.6415 37.0334 77.0547 36.6362 75.6582 35.8437C74.2645 35.053 73.1254 33.8808 72.3747 32.4651C71.5822 31.0064 71.1851 29.2622 71.1851 27.2306V13.1449H76.0865V26.8975C76.0865 28.929 76.5953 30.4353 77.6092 31.4182C78.625 32.3699 80.0362 32.8458 81.8445 32.8458C83.8431 32.8458 85.4464 32.1796 86.6507 30.8472C87.8879 29.4836 88.5066 27.5326 88.5066 24.994V13.1449H93.408V36.6051H88.6017V33.0837H87.8404C87.3974 34.0355 86.6031 34.9396 85.461 35.7962C84.3189 36.6198 82.6388 37.0334 80.4169 37.0334ZM110.885 37.2713C108.601 37.2713 106.84 36.8595 105.603 36.0341C104.397 35.2105 103.493 34.2899 102.891 33.2741H102.129V36.6051H97.3229V3.29452H102.224V16.3332H102.986C103.366 15.6981 103.873 15.096 104.508 14.525C105.144 13.921 105.984 13.4305 107.031 13.0498C108.077 12.6691 109.362 12.4787 110.885 12.4787C112.853 12.4787 114.661 12.9546 116.31 13.9063C117.959 14.8581 119.275 16.2381 120.26 18.0464C121.242 19.8547 121.735 22.0125 121.735 24.5181V25.2319C121.735 27.7705 121.228 29.943 120.212 31.7513C119.229 33.5266 117.911 34.892 116.262 35.8437C114.644 36.7955 112.853 37.2713 110.885 37.2713ZM109.457 32.9885C111.582 32.9885 113.328 32.3059 114.692 30.9423C116.088 29.5788 116.786 27.6277 116.786 25.0892V24.6609C116.786 22.1535 116.103 20.2189 114.74 18.8553C113.376 17.4918 111.615 16.8091 109.457 16.8091C107.364 16.8091 105.619 17.4918 104.223 18.8553C102.859 20.2189 102.177 22.1553 102.177 24.6609V25.0892C102.177 27.6277 102.859 29.5788 104.223 30.9423C105.619 32.3059 107.364 32.9885 109.457 32.9885ZM124.477 36.6051V13.1449H129.378V36.6051H124.477ZM126.951 9.95665C125.999 9.95665 125.19 9.65465 124.524 9.0525C123.889 8.4174 123.572 7.60843 123.572 6.62558C123.572 5.64274 123.889 4.85024 124.524 4.24626C124.846 3.93513 125.226 3.69083 125.642 3.52747C126.059 3.36411 126.504 3.28494 126.951 3.29452C127.936 3.29452 128.745 3.61116 129.378 4.24626C130.013 4.85024 130.33 5.64274 130.33 6.62558C130.33 7.60843 130.013 8.41923 129.378 9.0525C128.743 9.65648 127.936 9.95665 126.951 9.95665ZM144.218 37.2713C141.966 37.2713 139.92 36.7955 138.081 35.8437C136.277 34.8973 134.776 33.4627 133.749 31.7037C132.702 29.8954 132.178 27.7229 132.178 25.1843V24.5657C132.178 22.0272 132.702 19.8711 133.749 18.0939C134.776 16.335 136.277 14.9004 138.081 13.9539C139.92 12.9711 141.966 12.4787 144.218 12.4787C146.471 12.4787 148.391 12.8905 149.977 13.716C151.562 14.5396 152.833 15.6359 153.784 16.9995C154.758 18.34 155.409 19.887 155.688 21.5202L150.929 22.5195C150.785 21.5119 150.445 20.5422 149.93 19.6643C149.415 18.8006 148.675 18.0933 147.788 17.6181C146.868 17.1111 145.709 16.8567 144.315 16.8567C142.949 16.8567 141.712 17.1733 140.601 17.8084C139.523 18.4124 138.666 19.3001 138.033 20.4733C137.398 21.6154 137.081 23.0118 137.081 24.6609V25.0892C137.081 26.7382 137.398 28.1512 138.033 29.3244C138.666 30.4976 139.523 31.3871 140.601 31.9892C141.712 32.5932 142.949 32.8934 144.315 32.8934C146.376 32.8934 147.946 32.3699 149.024 31.323C150.104 30.2432 150.786 28.8796 151.07 27.2306L155.829 28.3251C155.451 29.9373 154.755 31.458 153.783 32.7982C152.831 34.1617 151.562 35.2562 149.976 36.0817C148.391 36.8742 146.469 37.2713 144.218 37.2713Z" fill="#2F2F2F"/>
</g>
<defs>
<clipPath id="clip0_11_520">
<rect width="159.232" height="47.5866" fill="white" transform="translate(0.387207)"/>
</clipPath>
</defs>
</svg>
