<svg width="214" height="52" viewBox="0 0 214 52" fill="none" xmlns="http://www.w3.org/2000/svg">
<path d="M16.112 7.6303C16.112 3.41625 12.6958 0 8.48174 0C4.26769 0 0.85144 3.41625 0.85144 7.6303C0.85144 11.8444 4.26769 15.2606 8.48174 15.2606C12.6958 15.2606 16.112 11.8444 16.112 7.6303ZM34.0525 7.6303C34.0525 3.41625 30.6362 0 26.4222 0C22.2081 0 18.7919 3.41625 18.7919 7.6303C18.7919 11.8444 22.2081 15.2606 26.4222 15.2606C30.6362 15.2606 34.0525 11.8444 34.0525 7.6303ZM51.9929 7.6303C51.9929 3.41625 48.5766 0 44.3626 0C40.1485 0 36.7323 3.41625 36.7323 7.6303C36.7323 11.8444 40.1485 15.2606 44.3626 15.2606C48.5766 15.2606 51.9929 11.8444 51.9929 7.6303ZM34.0525 25.5707C34.0525 21.3567 30.6362 17.9404 26.4222 17.9404C22.2081 17.9404 18.7919 21.3567 18.7919 25.5707C18.7919 29.7848 22.2081 33.201 26.4222 33.201C30.6362 33.201 34.0525 29.7848 34.0525 25.5707ZM34.0525 43.5111C34.0525 39.2971 30.6362 35.8808 26.4222 35.8808C22.2081 35.8808 18.7919 39.2971 18.7919 43.5111C18.7919 47.7252 22.2081 51.1414 26.4222 51.1414C30.6362 51.1414 34.0525 47.7252 34.0525 43.5111ZM68.2558 19.6178H61.1574V15.3833H79.7729V19.6178H72.654V39.0925H68.2558V19.6178ZM90.9217 28.946C90.5535 26.7367 89.1011 25.0593 86.6872 25.0593C84.1097 25.0593 82.6163 26.7572 82.1049 28.946H90.9217ZM94.6448 34.0193C94.2766 35.3694 92.1287 39.4403 86.6872 39.4403C81.614 39.4403 77.8909 35.7172 77.8909 30.4598C77.8909 25.2025 81.614 21.4794 86.6872 21.4794C91.4331 21.4794 95.1562 25.2025 95.1562 30.1121C95.1562 30.6235 95.0949 31.0326 95.0539 31.3395L94.9926 31.81H82.1254C82.4936 34.2238 84.2938 35.8808 86.7077 35.8808C88.7124 35.8808 89.9193 34.7353 90.2671 34.0193H94.6448ZM97.6928 15.3833H101.927V39.0925H97.6928V15.3833ZM117.495 28.946C117.127 26.7367 115.674 25.0593 113.26 25.0593C110.683 25.0593 109.189 26.7572 108.678 28.946H117.495ZM121.238 34.0193C120.87 35.3694 118.722 39.4403 113.281 39.4403C108.208 39.4403 104.484 35.7172 104.484 30.4598C104.484 25.2025 108.208 21.4794 113.281 21.4794C118.027 21.4794 121.75 25.2025 121.75 30.1121C121.75 30.6235 121.688 31.0326 121.647 31.3395L121.586 31.81H108.719C109.087 34.2238 110.887 35.8808 113.301 35.8808C115.306 35.8808 116.513 34.7353 116.861 34.0193H121.238ZM125.637 25.898H122.752V21.8272H125.637V19.2905C125.637 16.713 127.293 15.056 129.871 15.056H133.594V18.7791H131.057C130.382 18.7791 129.871 19.2905 129.871 19.9656V21.8272H133.594V25.898H129.871V39.113H125.637V25.898ZM154.378 21.8272H158.265L158.613 23.5251H158.776C159.083 23.1568 159.492 22.8091 159.922 22.5022C160.699 21.9908 161.886 21.4794 163.522 21.4794C167.409 21.4794 170.293 24.3638 170.293 28.7619V39.0925H166.059V29.1097C166.059 26.9004 164.524 25.3866 162.336 25.3866C160.126 25.3866 158.613 26.9208 158.613 29.1097V39.0925H154.378V21.8272ZM197.255 32.6691C196.703 35.3694 194.575 39.4403 189.134 39.4403C184.06 39.4403 180.337 35.7172 180.337 30.4598C180.337 25.2025 184.06 21.4794 189.134 21.4794C194.596 21.4794 196.723 25.5503 197.255 28.0869H193.02C192.652 27.105 191.67 25.3866 189.134 25.3866C186.597 25.3866 184.551 27.4118 184.551 30.4598C184.551 33.5079 186.577 35.5331 189.134 35.5331C191.691 35.5331 192.652 33.8352 193.02 32.6487H197.255V32.6691ZM209.713 31.6463H206.154C203.944 31.6463 202.942 32.485 202.942 33.8556C202.942 35.2058 203.924 36.0649 205.642 36.0649C208.22 36.0649 209.713 34.5716 209.713 32.1782V31.6463ZM210.04 37.4151H209.877C209.57 37.7833 209.161 38.131 208.69 38.4379C207.872 38.9493 206.685 39.4607 204.967 39.4607C201.039 39.4607 198.707 37.0468 198.707 34.2034C198.707 30.8076 201.08 28.4346 205.826 28.4346H209.713V28.0869C209.713 26.1844 208.567 24.8752 206.665 24.8752C204.763 24.8752 203.781 26.1026 203.617 27.0845H199.382C199.751 24.241 202.062 21.4999 206.665 21.4999C211.063 21.4999 213.948 24.4047 213.948 28.1073V39.113H210.388L210.04 37.4151ZM173.546 21.8272H177.78V39.0925H173.546V21.8272ZM178.169 16.8358C178.169 15.4447 177.044 14.3196 175.653 14.3196C174.262 14.3196 173.137 15.4447 173.137 16.8358C173.137 18.2268 174.262 19.3519 175.653 19.3519C177.044 19.3315 178.169 18.2268 178.169 16.8358ZM147.607 30.4598C147.607 27.4118 145.582 25.3866 143.025 25.3866C140.488 25.3866 138.442 27.4118 138.442 30.4598C138.442 33.5079 140.468 35.5331 143.025 35.5331C145.582 35.5331 147.607 33.5079 147.607 30.4598ZM151.841 30.4598C151.841 35.7172 148.118 39.4403 143.025 39.4403C137.951 39.4403 134.228 35.7172 134.228 30.4598C134.228 25.2025 137.951 21.4794 143.025 21.4794C148.118 21.4794 151.841 25.2025 151.841 30.4598ZM144.559 14.5446H148.957L144.886 19.4542H141.327L144.559 14.5446Z" fill="#2F2F2F"/>
</svg>
